# File created by Blade
# Date/Time:  Fri Jan 16 14:33:41 2015
# Frame Rate: 120.000 fps
#------------------------------------------------------
:FULLY-SPECIFIED
:DEGREES
752
root 18.668959 35.717883 -23.818616 -174.772504 -6.819260 -180.011101
Spine -17.983412 15.094744 -7.361392
Head 10.858797 -23.581164 -1.959388
LeftShoulder -4.458158 -15.998251 -6.140251
LeftArm -14.431943 16.024527 -72.097927
LeftForeArm -0.333438 -0.000000 6.670769
LeftHand -1.047342 -0.000000 -1.461343
LeftHandThumb1 -26.253704 0.000000 33.147579
RightShoulder 8.003369 0.656965 -5.830216
RightArm 63.230810 28.628699 35.394402
RightForeArm -8.473000 -0.000000 86.775916
RightHand 3.845258 -0.000000 -5.079027
RightHandThumb1 -24.326973 -0.000000 -32.862282
LeftUpLeg 1.520171 5.997175 -0.524960
LeftLeg -4.993367 -0.000000 0.000000
LeftFoot -19.023558 24.807361 -14.028865
LeftToeBase 24.689312 -0.000000 -0.000000
RightUpLeg 1.472461 -15.220099 1.358502
RightLeg -2.908180 -0.000000 0.000000
RightFoot -21.067373 -26.384895 15.376359
RightToeBase 22.833331 -0.000000 -0.000000
753
root 18.670377 35.718597 -23.817911 -174.789559 -6.836555 -180.016789
Spine -17.954640 15.105747 -7.365618
Head 10.833732 -23.624637 -1.991973
LeftShoulder -4.523268 -15.886324 -6.198268
LeftArm -14.361360 16.750364 -72.237514
LeftForeArm -1.035150 -0.000000 6.822125
LeftHand -1.123002 -0.000000 -1.055273
LeftHandThumb1 -26.253704 0.000000 33.147579
RightShoulder 8.046548 0.567967 -5.882266
RightArm 62.967126 28.146194 34.246940
RightForeArm -8.357824 -0.000000 86.974851
RightHand 3.886724 0.000000 -5.154338
RightHandThumb1 -24.326973 -0.000000 -32.862282
LeftUpLeg 1.535130 6.013116 -0.525480
LeftLeg -4.993789 -0.000000 0.000000
LeftFoot -19.004951 24.781498 -14.038034
LeftToeBase 24.668341 -0.000000 -0.000000
RightUpLeg 1.490206 -15.215775 1.349356
RightLeg -2.902278 -0.000000 0.000000
RightFoot -21.073642 -26.392848 15.383550
RightToeBase 22.849914 -0.000000 -0.000000
754
root 18.671673 35.718597 -23.816627 -174.789759 -6.855400 -180.017561
Spine -17.956335 15.107117 -7.404853
Head 10.809399 -23.689964 -1.924191
LeftShoulder -4.495421 -15.937618 -6.179999
LeftArm -14.324710 16.309617 -72.163183
LeftForeArm -0.605745 -0.000000 6.697147
LeftHand -1.031796 -0.000000 -1.342778
LeftHandThumb1 -26.253704 0.000000 33.147579
RightShoulder 8.112372 0.539161 -5.916978
RightArm 62.606509 27.661276 33.121072
RightForeArm -8.130559 -0.000000 87.241076
RightHand 3.837308 -0.000000 -4.935140
RightHandThumb1 -24.326973 -0.000000 -32.862282
LeftUpLeg 1.531425 6.023426 -0.524210
LeftLeg -4.998251 -0.000000 0.000000
LeftFoot -18.987390 24.763471 -14.020254
LeftToeBase 24.705038 -0.000000 -0.000000
RightUpLeg 1.483580 -15.225871 1.353321
RightLeg -2.890894 -0.000000 0.000000
RightFoot -21.081217 -26.423042 15.381439
RightToeBase 22.854129 -0.000000 -0.000000
755
root 18.673159 35.719004 -23.815149 -174.789614 -6.875733 -180.023202
Spine -17.953303 15.116252 -7.453390
Head 10.778092 -23.757298 -1.866466
LeftShoulder -4.457666 -15.997436 -6.162961
LeftArm -14.309055 15.896162 -72.100444
LeftForeArm -0.197137 0.000000 6.606571
LeftHand -0.984954 0.000000 -1.586902
LeftHandThumb1 -26.253704 0.000000 33.147579
RightShoulder 8.156260 0.532627 -5.931586
RightArm 62.262214 27.150634 31.994602
RightForeArm -7.964957 0.000000 87.491017
RightHand 3.782747 -0.000000 -4.755264
RightHandThumb1 -24.326973 -0.000000 -32.862282
LeftUpLeg 1.522922 6.033205 -0.527791
LeftLeg -4.992634 -0.000000 0.000000
LeftFoot -18.996210 24.736874 -14.042062
LeftToeBase 24.707045 -0.000000 -0.000000
RightUpLeg 1.480316 -15.229986 1.353876
RightLeg -2.889708 -0.000000 0.000000
RightFoot -21.107513 -26.419679 15.426838
RightToeBase 22.840565 -0.000000 -0.000000
756
root 18.674519 35.719430 -23.813542 -174.796607 -6.889455 -180.020561
Spine -17.941550 15.123218 -7.457730
Head 10.762267 -23.822497 -1.874652
LeftShoulder -4.454134 -16.016843 -6.198405
LeftArm -14.312456 15.897764 -72.094539
LeftForeArm -0.153281 -0.000000 6.605333
LeftHand -0.981186 -0.000000 -1.623480
LeftHandThumb1 -26.253704 0.000000 33.147579
RightShoulder 8.216579 0.450330 -5.985215
RightArm 62.017355 26.676725 30.951534
RightForeArm -7.928957 -0.000000 87.744666
RightHand 3.752538 -0.000000 -4.527010
RightHandThumb1 -24.326973 -0.000000 -32.862282
LeftUpLeg 1.522998 6.055573 -0.523477
LeftLeg -4.990491 -0.000000 0.000000
LeftFoot -18.991240 24.718779 -14.032984
LeftToeBase 24.730234 -0.000000 -0.000000
RightUpLeg 1.483461 -15.225313 1.357428
RightLeg -2.887754 -0.000000 0.000000
RightFoot -21.105347 -26.431809 15.434990
RightToeBase 22.873112 -0.000000 -0.000000
757
root 18.677250 35.719435 -23.811791 -174.793111 -6.898131 -180.015538
Spine -17.949239 15.134766 -7.479849
Head 10.752283 -23.879693 -1.858051
LeftShoulder -4.437312 -16.021345 -6.211884
LeftArm -14.322741 15.898010 -72.113571
LeftForeArm -0.142538 -0.000000 6.622126
LeftHand -0.975945 -0.000000 -1.578653
LeftHandThumb1 -26.253704 0.000000 33.147579
RightShoulder 8.257789 0.353523 -6.006068
RightArm 61.780643 26.170984 29.814668
RightForeArm -8.158921 -0.000000 87.946851
RightHand 3.819973 -0.000000 -4.619993
RightHandThumb1 -24.326973 -0.000000 -32.862282
LeftUpLeg 1.514074 6.078765 -0.515674
LeftLeg -4.991452 -0.000000 0.000000
LeftFoot -18.977051 24.692052 -14.026584
LeftToeBase 24.698263 -0.000000 -0.000000
RightUpLeg 1.472567 -15.234174 1.364889
RightLeg -2.872125 -0.000000 0.000000
RightFoot -21.085561 -26.413422 15.394319
RightToeBase 22.829513 -0.000000 -0.000000
758
root 18.677237 35.719500 -23.811053 -174.800564 -6.907773 -180.016753
Spine -17.939835 15.154568 -7.492442
Head 10.731140 -23.928178 -1.874512
LeftShoulder -4.419750 -16.080858 -6.235198
LeftArm -14.386091 15.902686 -72.140732
LeftForeArm -0.084769 0.000000 6.634444
LeftHand -1.049434 -0.000000 -1.626791
LeftHandThumb1 -26.253704 0.000000 33.147579
RightShoulder 8.299101 0.277149 -6.042426
RightArm 61.544471 25.682759 28.713490
RightForeArm -8.158673 -0.000000 88.191298
RightHand 3.737483 -0.000000 -4.364663
RightHandThumb1 -24.326973 -0.000000 -32.862282
LeftUpLeg 1.522538 6.090436 -0.516402
LeftLeg -4.998676 -0.000000 0.000000
LeftFoot -18.972302 24.683926 -14.021626
LeftToeBase 24.713569 -0.000000 -0.000000
RightUpLeg 1.480953 -15.238679 1.364567
RightLeg -2.876370 -0.000000 0.000000
RightFoot -21.084749 -26.437852 15.381600
RightToeBase 22.849273 -0.000000 -0.000000
759
root 18.677938 35.719377 -23.810066 -174.806051 -6.916600 -180.020980
Spine -17.935341 15.172943 -7.484280
Head 10.721850 -23.947512 -1.941541
LeftShoulder -4.455376 -15.917856 -6.322460
LeftArm -14.320491 16.651483 -72.262902
LeftForeArm -0.778650 -0.000000 6.818815
LeftHand -1.117831 -0.000000 -1.145669
LeftHandThumb1 -26.253704 0.000000 33.147579
RightShoulder 8.344431 0.157168 -6.108688
RightArm 61.345308 25.186453 27.589540
RightForeArm -8.063392 -0.000000 88.438150
RightHand 3.825159 -0.000000 -4.407808
RightHandThumb1 -24.326973 -0.000000 -32.862282
LeftUpLeg 1.530459 6.102857 -0.518483
LeftLeg -5.008259 -0.000000 0.000000
LeftFoot -18.970483 24.666630 -14.037371
LeftToeBase 24.726003 -0.000000 -0.000000
RightUpLeg 1.483307 -15.250245 1.363573
RightLeg -2.871172 -0.000000 0.000000
RightFoot -21.105620 -26.457555 15.456315
RightToeBase 22.770903 -0.000000 -0.000000
760
root 18.679627 35.718960 -23.807904 -174.810026 -6.926720 -180.016027
Spine -17.924570 15.178642 -7.481923
Head 10.697472 -23.963975 -1.967832
LeftShoulder -4.448405 -15.938093 -6.354568
LeftArm -14.357744 16.786637 -72.306110
LeftForeArm -0.848694 -0.000000 6.843694
LeftHand -1.178679 -0.000000 -1.177666
LeftHandThumb1 -26.253704 0.000000 33.147579
RightShoulder 8.375898 0.081401 -6.150348
RightArm 61.138453 24.665049 26.435677
RightForeArm -7.845672 -0.000000 88.651130
RightHand 3.831722 -0.000000 -3.982472
RightHandThumb1 -24.326973 -0.000000 -32.862282
LeftUpLeg 1.528379 6.130774 -0.511510
LeftLeg -5.009893 -0.000000 0.000000
LeftFoot -18.954093 24.645096 -14.000589
LeftToeBase 24.733687 -0.000000 -0.000000
RightUpLeg 1.484582 -15.240530 1.367731
RightLeg -2.868918 -0.000000 0.000000
RightFoot -21.095386 -26.449763 15.379686
RightToeBase 22.874529 -0.000000 -0.000000
761
root 18.680910 35.718807 -23.809476 -174.823607 -6.938042 -180.012793
Spine -17.917388 15.184575 -7.489178
Head 10.693940 -23.998453 -1.980470
LeftShoulder -4.428569 -15.915561 -6.370920
LeftArm -14.352178 16.718718 -72.306271
LeftForeArm -0.793847 0.000000 6.856237
LeftHand -1.113138 0.000000 -1.094619
LeftHandThumb1 -26.253704 0.000000 33.147579
RightShoulder 8.409028 0.034846 -6.189908
RightArm 60.886330 24.098731 25.233742
RightForeArm -7.728119 -0.000000 88.910247
RightHand 3.790319 -0.000000 -3.882300
RightHandThumb1 -24.326973 -0.000000 -32.862282
LeftUpLeg 1.555559 6.140536 -0.502857
LeftLeg -5.035107 -0.000000 0.000000
LeftFoot -18.925649 24.630314 -13.994746
LeftToeBase 24.706041 -0.000000 -0.000000
RightUpLeg 1.505763 -15.254984 1.369687
RightLeg -2.875345 -0.000000 0.000000
RightFoot -21.100315 -26.451894 15.442800
RightToeBase 22.779368 -0.000000 -0.000000
762
root 18.681560 35.718585 -23.806296 -174.821814 -6.922418 -180.011553
Spine -17.915838 15.199607 -7.490821
Head 10.674735 -23.987848 -1.993193
LeftShoulder -4.404903 -15.918495 -6.388304
LeftArm -14.381214 16.675651 -72.325599
LeftForeArm -0.785685 -0.000000 6.861966
LeftHand -1.121292 -0.000000 -1.133335
LeftHandThumb1 -26.253704 0.000000 33.147579
RightShoulder 8.461552 -0.041306 -6.242014
RightArm 60.633979 23.541024 23.976168
RightForeArm -7.562573 -0.000000 89.165606
RightHand 3.766876 0.000000 -3.898862
RightHandThumb1 -24.326973 -0.000000 -32.862282
LeftUpLeg 1.551120 6.167433 -0.503766
LeftLeg -5.036142 -0.000000 0.000000
LeftFoot -18.930744 24.614516 -14.015904
LeftToeBase 24.659561 -0.000000 -0.000000
RightUpLeg 1.492586 -15.235635 1.372384
RightLeg -2.868356 -0.000000 0.000000
RightFoot -21.094337 -26.440315 15.375113
RightToeBase 22.870528 -0.000000 -0.000000
763
root 18.682129 35.718574 -23.805447 -174.828452 -6.911239 -180.006746
Spine -17.907790 15.211336 -7.480083
Head 10.672294 -23.967707 -2.028226
LeftShoulder -4.400034 -15.941517 -6.403669
LeftArm -14.453161 16.793854 -72.392717
LeftForeArm -0.914953 -0.000000 6.898359
LeftHand -1.115092 -0.000000 -1.070201
LeftHandThumb1 -26.253704 0.000000 33.147579
RightShoulder 8.503039 -0.055758 -6.312363
RightArm 60.381374 22.903112 22.737053
RightForeArm -7.311130 -0.000000 89.417655
RightHand 3.846709 -0.000000 -3.963346
RightHandThumb1 -24.326973 -0.000000 -32.862282
LeftUpLeg 1.562398 6.197127 -0.498503
LeftLeg -5.046543 -0.000000 0.000000
LeftFoot -18.934021 24.594629 -14.018798
LeftToeBase 24.708248 -0.000000 -0.000000
RightUpLeg 1.488532 -15.237851 1.377530
RightLeg -2.856638 -0.000000 0.000000
RightFoot -21.089745 -26.447115 15.362828
RightToeBase 22.876961 -0.000000 -0.000000
